<?xml version="1.0" standalone="no"?>
<!DOCTYPE svg PUBLIC "-//W3C//DTD SVG 20010904//EN"
 "http://www.w3.org/TR/2001/REC-SVG-20010904/DTD/svg10.dtd">
<svg version="1.0" xmlns="http://www.w3.org/2000/svg"
 width="700.000000pt" height="700.000000pt" viewBox="0 0 700.000000 700.000000"
 preserveAspectRatio="xMidYMid meet">
<metadata>
Created by potrace 1.11, written by Peter Selinger 2001-2013
</metadata>
<g transform="translate(0.000000,700.000000) scale(0.100000,-0.100000)"
fill="#000000" stroke="none">
<path d="M2855 5926 c-89 -18 -172 -64 -240 -131 -98 -96 -139 -186 -150 -324
-3 -30 -8 -57 -11 -60 -3 -3 -31 -20 -61 -37 l-56 -31 -41 23 c-96 54 -241 69
-361 39 -71 -18 -157 -69 -217 -129 -156 -155 -189 -358 -93 -557 14 -29 25
-56 25 -60 0 -4 -16 -35 -36 -68 -32 -54 -40 -61 -68 -61 -309 -4 -544 -293
-481 -593 25 -121 110 -246 212 -312 l41 -27 1 -83 0 -84 -47 -29 c-139 -87
-222 -245 -216 -412 2 -80 6 -100 34 -173 64 -170 245 -302 425 -310 64 -3 69
-7 115 -97 15 -30 44 -79 64 -109 l37 -55 -103 -103 -103 -103 -200 200 -201
201 -229 -231 c-127 -127 -232 -233 -235 -236 -2 -2 86 -95 195 -204 l200
-200 -412 -413 -412 -412 235 -235 235 -234 412 412 411 412 201 -200 200
-200 235 235 235 235 -200 200 c-109 109 -197 202 -195 204 3 3 50 51 104 106
99 100 99 100 120 81 20 -19 102 -68 196 -117 41 -22 45 -28 46 -62 7 -240
168 -431 401 -476 199 -38 373 36 494 212 17 23 36 42 44 43 19 1 131 1 149 0
7 -1 19 -14 26 -31 16 -38 103 -129 157 -163 136 -86 320 -93 474 -17 63 31
84 47 142 108 87 91 129 200 137 357 0 6 29 25 64 44 l64 35 58 -27 c249 -111
527 -22 639 207 43 86 46 99 51 202 4 91 -14 181 -49 251 l-24 46 33 55 c18
30 35 59 36 64 2 5 33 12 68 15 201 15 371 144 435 329 73 211 1 442 -176 567
l-59 41 0 76 0 75 36 20 c51 27 149 138 179 201 150 316 -57 678 -406 710 -62
6 -89 17 -89 35 0 5 -13 30 -29 55 l-28 46 23 42 c57 102 72 260 35 376 -66
208 -255 342 -473 334 -83 -3 -120 -12 -209 -51 l-56 -24 -61 37 c-34 20 -62
39 -63 43 0 3 -2 26 -3 51 -10 126 -60 235 -150 324 -222 219 -589 179 -761
-81 l-28 -43 -72 0 -72 0 -28 43 c-62 92 -180 179 -281 206 -66 18 -174 21
-239 7z m676 -660 c34 -85 68 -136 125 -191 124 -118 313 -160 485 -106 65 21
187 94 196 118 7 17 33 16 57 -2 16 -12 17 -20 9 -53 -6 -21 -11 -74 -12 -118
-5 -219 153 -417 375 -469 55 -13 155 -13 229 0 37 6 41 4 56 -22 15 -28 15
-29 -18 -63 -72 -74 -127 -203 -132 -306 -3 -63 15 -163 37 -212 17 -38 63
-111 92 -145 38 -47 164 -122 238 -142 17 -5 22 -14 22 -41 0 -26 -4 -34 -18
-34 -10 0 -51 -16 -91 -35 -240 -115 -348 -408 -236 -641 19 -40 41 -79 48
-86 6 -8 25 -28 41 -46 27 -29 28 -33 16 -62 -10 -25 -17 -30 -34 -25 -12 3
-61 8 -111 11 -125 8 -205 -13 -313 -84 -93 -61 -179 -195 -199 -310 -9 -57
-6 -174 7 -207 10 -26 9 -32 -10 -47 -12 -10 -25 -18 -29 -18 -3 0 -26 18 -51
40 -82 72 -205 120 -311 120 -216 0 -393 -122 -466 -321 -25 -65 -28 -69 -58
-69 -29 0 -33 4 -48 53 -62 195 -257 337 -464 337 -139 0 -248 -46 -349 -147
-15 -16 -20 -15 -63 8 -235 123 -460 342 -612 591 l-56 93 51 56 c129 143 150
383 48 558 -57 99 -187 201 -287 225 -36 9 -43 19 -37 51 3 17 15 27 41 35
125 39 233 129 292 244 93 178 68 391 -64 549 -37 45 -39 50 -26 73 10 19 18
24 34 19 11 -3 61 -9 111 -12 113 -7 201 16 292 78 99 65 149 132 203 269 17
44 18 235 1 267 -10 19 -8 23 21 42 l32 20 40 -38 c110 -106 266 -148 430
-117 63 13 176 71 226 118 48 44 110 134 124 177 22 72 34 88 61 87 24 -2 31
-10 55 -70z"/>
</g>
</svg>
